<svg id="Layer_1" enable-background="new 0 0 510 510" height="512" viewBox="0 0 510 510" width="512" xmlns="http://www.w3.org/2000/svg"><g><g><g><path d="m502.093 318.121c.236-.91.463-1.826.688-2.743-.222.917-.455 1.83-.688 2.743z" fill="#afe6ff"/></g><path d="m255 0c-70.519 0-121.576 28.582-144.787 44.702l-24.328 72.204c0 140.833 118.763 254.972 259.596 254.972 60.017 0 115.159-27.944 158.719-62.639.178-1.087 5.8-23.477 5.8-54.239 0-140.833-114.167-255-255-255z" fill="#afe6ff"/><g><path d="m504.2 309.239c-43.559 34.696-98.724 55.441-158.741 55.441-140.833 0-255-114.167-255-255 0-18.615-25.11-26.381-37.779-9.895-33.037 42.989-52.68 96.806-52.68 155.215 0 140.833 114.167 255 255 255 119.042 0 219.002-81.583 247.093-191.879.233-.913.466-1.826.688-2.743.107-.436 1.068-4.523 1.419-6.139z" fill="#9dc6fb"/></g></g><g><path d="m96.242 55.455c-16.255 12.95-30.885 27.85-43.554 44.336-2.587 13.706-2.076 28.722 3.062 44.899 14.237 44.821 64.13 92.757 110.535 88.859v-129.979c-25.019-12.22-44.982-32.923-56.072-58.868-9.088 6.311-13.907 10.712-13.954 10.739-.006.004-.011.009-.017.014z" fill="#8659b9"/><g><path d="m394.877 103.57c28.699-14.018 50.751-39.196 60.382-70.647 1.037-3.387 5.155-4.683 7.897-2.44 28.186 23.062 58.592 62.779 42.256 114.207-14.237 44.821-64.13 92.757-110.535 88.86z" fill="#c14098"/></g><g><path d="m475.013 146.311c-12.73-18.383-17.314-41.36-11.944-63.066 4.177-16.885 4.565-34.673.837-52.142-.25-.207-.5-.415-.75-.62-2.742-2.243-6.86-.948-7.897 2.44-9.631 31.452-31.683 56.629-60.382 70.647v129.98c37.006 3.108 76.23-26.747 97.821-61.699z" fill="#8659b9"/></g><path d="m85.442 110.378c-4.861-15.302-5.577-29.565-3.45-42.663-10.646 9.839-20.458 20.565-29.303 32.075-2.587 13.706-2.076 28.722 3.062 44.9 14.237 44.821 64.13 92.757 110.535 88.859v-38.333c-36.315-12.329-69.633-49.546-80.844-84.838z" fill="#634086"/><g><g><path d="m495.866 267.844c0 53.793-19.961 102.925-52.88 140.391-38.999 44.386-96.183 61.248-159.911 61.248-117.521 0-202.22-87.889-202.22-205.41 0-89.397 44.557-162.147 122.671-193.652 24.575-9.912 51.425-15.368 79.549-15.368 117.521 0 212.791 95.269 212.791 212.791z" fill="#c14098"/></g><g><path d="m385.995 137.071c-2.275 0-4.577-.632-6.632-1.957-3.266-2.105-6.645-4.115-10.043-5.976-5.941-3.253-8.12-10.705-4.867-16.646 3.252-5.94 10.705-8.121 16.646-4.868 3.909 2.14 7.796 4.453 11.552 6.874 5.693 3.669 7.333 11.259 3.664 16.952-2.346 3.637-6.291 5.621-10.32 5.621z" fill="#9898f4"/></g><g><path d="m337.327 113.812c-1.26 0-2.541-.195-3.804-.607-16.23-5.291-33.204-7.974-50.449-7.974-12.643 0-25.232 1.454-37.419 4.323-6.594 1.549-13.196-2.535-14.747-9.127-1.552-6.593 2.535-13.195 9.127-14.747 14.026-3.302 28.507-4.976 43.039-4.976 19.831 0 39.363 3.089 58.051 9.182 6.439 2.099 9.958 9.021 7.858 15.461-1.686 5.176-6.491 8.465-11.656 8.465z" fill="#9898f4"/></g><g><path d="m363.432 423.607c-117.521 0-212.791-95.27-212.791-212.791 0-53.793 19.97-102.916 52.889-140.383-78.113 31.505-133.247 108.014-133.247 197.411 0 117.521 95.27 212.791 212.791 212.791 63.728 0 120.903-28.023 159.902-72.409-24.575 9.912-51.419 15.381-79.544 15.381z" fill="#8659b9"/></g></g><g><path d="m329.884 377.141c-21.08 0-41.061-6.74-57.782-19.492-16.178-12.337-28.192-29.84-33.829-49.284-1.283-4.423 1.264-9.049 5.687-10.331 4.421-1.285 9.049 1.263 10.331 5.687 9.686 33.408 40.772 56.741 75.593 56.741s65.907-23.333 75.593-56.741c1.282-4.423 5.908-6.97 10.331-5.687 4.423 1.282 6.97 5.908 5.687 10.331-5.637 19.444-17.651 36.946-33.829 49.284-16.721 12.752-36.701 19.492-57.782 19.492z" fill="#41378c"/></g><g><g><ellipse cx="275.192" cy="238.781" fill="#8659b9" rx="25.922" ry="31.177"/></g><g><circle cx="275.065" cy="230.932" fill="#41378c" r="23.328"/></g></g><g><g><ellipse cx="391.407" cy="238.019" fill="#8659b9" rx="25.859" ry="31.177"/></g><g><circle cx="391.169" cy="230.17" fill="#41378c" r="23.328"/></g></g><g><path d="m298.057 213.415h-74.138c-4.605 0-8.339-3.734-8.339-8.339s3.734-8.339 8.339-8.339h74.138c4.605 0 8.339 3.734 8.339 8.339s-3.734 8.339-8.339 8.339z" fill="#8659b9"/></g><g><path d="m437.306 212.652h-74.138c-4.605 0-8.339-3.734-8.339-8.339s3.734-8.339 8.339-8.339h74.138c4.605 0 8.339 3.734 8.339 8.339s-3.733 8.339-8.339 8.339z" fill="#8659b9"/></g></g></g></svg>