<svg id="Capa_1" enable-background="new 0 0 479.942 479.942" height="512" viewBox="0 0 479.942 479.942" width="512" xmlns="http://www.w3.org/2000/svg"><g><path d="m477.27 129.051c-8.77.68-15.87 3.26-21.53 6.97-1.71 1.12-3.29 2.34-4.75 3.65-7.07 6.29-11.22 14.47-13.23 22.04-.48 1.83-.84 3.62-1.09 5.34-.27 1.9-2.34 2.99-4.06 2.14-3.41-1.67-7.15-2.76-11.1-3.15-1.07-.11-2.15-.16-3.24-.16-16.32 0-29.84 12-32.22 27.66-.29 1.91-2.42 2.97-4.14 2.09-4.43-2.25-9.44-3.52-14.75-3.52-16.54 0-30.2 12.32-32.31 28.28-.15 1.13-.96 2.06-2.05 2.37l-16.73 4.75c-1.6.45-3.25-.55-3.59-2.18l-21.49-102.81c-.38-1.82 1.03-3.51 2.88-3.46l6.21.15c25.01.6 48.94-8.26 67.33-24.21h.01c1.89-1.64 3.72-3.35 5.49-5.14 4.42-4.46 8.46-9.37 12.01-14.7.82-1.23 2.46-1.61 3.76-.89l89.78 49.41c2.5 1.38 1.66 5.15-1.19 5.37z" fill="#0055a3"/><path d="m477.27 129.051c-8.77.68-15.87 3.26-21.53 6.97-1.71 1.12-3.29 2.34-4.75 3.65l-61.238-41.887c-6.556-4.484-14.876-5.521-22.332-2.783 1.89-1.64 3.72-3.35 5.49-5.14 4.42-4.46 8.46-9.37 12.01-14.7.82-1.23 2.46-1.61 3.76-.89l89.78 49.41c2.5 1.38 1.66 5.15-1.19 5.37z" fill="#004281"/><path d="m188.95 122.521-21.49 102.81c-.34 1.63-1.99 2.63-3.59 2.18l-16.73-4.75c-1.09-.31-1.9-1.24-2.05-2.37-2.11-15.96-15.77-28.28-32.31-28.28-5.32 0-10.35 1.27-14.79 3.54-1.75.9-3.81-.25-4.11-2.19-.84-5.45-3.03-10.45-6.22-14.65-1.05-1.39-2.21-2.69-3.47-3.89-5.85-5.6-13.78-9.04-22.52-9.04-1.09 0-2.18.05-3.24.16-3.95.39-7.7 1.48-11.1 3.15-1.73.85-3.8-.25-4.07-2.15-.24-1.71-.6-3.5-1.09-5.32-3.78-14.3-15.23-30.79-39.49-32.67-2.86-.22-3.7-3.99-1.19-5.37l89.77-49.41c1.3-.72 2.93-.34 3.75.89 8.12 12.15 18.7 22.17 30.82 29.56.99.6 1.99 1.19 3 1.76 15.31 8.62 32.88 13.16 51.03 12.73l6.21-.15c1.85-.05 3.26 1.64 2.88 3.46z" fill="#0055a3"/><path d="m188.95 122.521-21.49 102.81c-.34 1.63-1.99 2.63-3.59 2.18l-16.73-4.75c-1.09-.31-1.9-1.24-2.05-2.37-2.11-15.96-15.77-28.28-32.31-28.28-5.32 0-10.35 1.27-14.79 3.54-1.75.9-3.81-.25-4.11-2.19-.84-5.45-3.03-10.45-6.22-14.65l41.17-72.33c15.31 8.62 32.88 13.16 51.03 12.73l6.21-.15c1.85-.05 3.26 1.64 2.88 3.46z" fill="#004281"/><g fill="#0055a3"><path d="m339.97 315.76c0 28.265-22.913 51.179-51.179 51.179h-107.571c-8.975 0-16.25 7.275-16.25 16.25 0 8.975 7.275 16.25 16.25 16.25h133.75l6 12.5-6 12.5h-133.75c-22.782 0-41.25-18.468-41.25-41.25 0-22.782 18.468-41.25 41.25-41.25h107.573c14.457 0 26.177-11.72 26.177-26.177 0-6.943-2.758-13.601-7.667-18.51l-43.343-43.343 17.67-17.68 43.347 43.34c9.599 9.598 14.993 22.616 14.993 36.191z"/><path d="m210.561 110.795h-52.566c-11.865-20.002-12.202-44.804-.883-65.12l.638-1.145c.945-1.696 3.449-1.481 4.091.351 8.579 24.467 23.864 46.029 44.11 62.225z"/><path d="m270.917 110.795h52.566c11.865-20.002 12.202-44.804.883-65.12l-.638-1.145c-.945-1.696-3.449-1.481-4.091.351-8.579 24.467-23.864 46.029-44.11 62.225z"/></g><path d="m341.95 118.941c-17.02-17.28-40.64-24.02-62.82-20.25-10.46 1.77-20.59 5.89-29.56 12.35-5.26 3.79-12.41 3.79-17.66 0-28.01-20.15-67.34-17.52-92.38 7.9-27.6 28-26.8 73.28 1.01 101.08l80.9 80.91c1.31 1.31 2.72 2.46 4.21 3.45 10.6 7.05 25.04 5.9 34.39-3.45l80.9-80.91c27.8-27.8 28.61-73.08 1.01-101.08z" fill="#e41f2d"/><path d="m341.95 118.941c-17.02-17.28-40.64-24.02-62.82-20.25 12.69 4.9 24.12 11.6 32.64 20.25 27.6 28 26.8 73.28-1.01 101.08l-80.9 80.91c-1.31 1.31-2.72 2.46-4.21 3.45 10.6 7.05 25.04 5.9 34.39-3.45l80.9-80.91c27.8-27.8 28.61-73.08 1.01-101.08z" fill="#c41926"/><path d="m371.636 411.939-50.104 24.168c-3.038 1.465-6.563-.748-6.563-4.121v-40.094c0-3.373 3.525-5.586 6.563-4.121z" fill="#c41926"/><g><path d="m91.31 129.311-32.88 36.73c-3.95.39-7.7 1.48-11.1 3.15-1.73.85-3.8-.25-4.07-2.15-.24-1.71-.6-3.5-1.09-5.32l37.96-42.42c2.76-3.08 7.51-3.35 10.59-.58 3.09 2.76 3.35 7.5.59 10.59z" fill="#004281"/></g><g><path d="m437.76 161.711c-.48 1.83-.84 3.62-1.09 5.34-.27 1.9-2.34 2.99-4.06 2.14-3.41-1.67-7.15-2.76-11.1-3.15l-32.88-36.73c-2.76-3.09-2.5-7.83.59-10.59 3.08-2.77 7.83-2.51 10.59.58z" fill="#004281"/></g></g></svg>